<?xml version="1.0" encoding="UTF-8"?>
<svg xmlns="http://www.w3.org/2000/svg" xmlns:xlink="http://www.w3.org/1999/xlink" width="583.8pt" height="533.15pt" viewBox="0 0 583.8 533.15" version="1.1">
<defs>
<clipPath id="clip1">
  <path d="M 0 29 L 583.800781 29 L 583.800781 533.148438 L 0 533.148438 Z M 0 29 "/>
</clipPath>
</defs>
<g id="surface1">
<path style=" stroke:none;fill-rule:nonzero;fill:rgb(1.599121%,0.799561%,1.199341%);fill-opacity:1;" d="M 195.589844 78.882813 C 202.101563 84.351563 217.796875 89.558594 217.796875 89.558594 C 217.796875 89.558594 216.082031 79.007813 208.847656 72.851563 C 201.601563 66.699219 174.832031 44.140625 174.03125 40.644531 C 173.226563 37.125 156.148438 40.546875 163.648438 47.996094 C 163.648438 47.996094 189.078125 73.410156 195.589844 78.882813 "/>
<path style=" stroke:none;fill-rule:nonzero;fill:rgb(1.599121%,0.799561%,1.199341%);fill-opacity:1;" d="M 220.828125 71.8125 C 220.828125 71.8125 208.871094 48.832031 209.851563 33.273438 C 209.851563 33.273438 207.675781 25.5625 204.203125 30.597656 C 204.203125 30.597656 201.417969 34.921875 198.394531 27.945313 C 195.371094 20.972656 187.554688 26.335938 188.667969 28.222656 C 188.667969 28.222656 211.511719 67.125 220.828125 71.8125 "/>
<path style=" stroke:none;fill-rule:nonzero;fill:rgb(1.599121%,0.799561%,1.199341%);fill-opacity:1;" d="M 241.796875 76.515625 C 241.796875 76.515625 244.5 72.121094 233.210938 47.402344 C 221.910156 22.679688 218.914063 16.765625 219.191406 13.941406 C 219.191406 13.941406 212.148438 14.464844 212.332031 21.011719 C 212.332031 21.011719 224.828125 63.566406 241.796875 76.515625 "/>
<path style=" stroke:none;fill-rule:nonzero;fill:rgb(1.599121%,0.799561%,1.199341%);fill-opacity:1;" d="M 252.011719 62.769531 C 252.011719 62.769531 251.9375 35.25 246.558594 20.046875 C 241.179688 4.839844 240.261719 8.386719 238.523438 16.566406 L 236.679688 20.324219 L 226.441406 20.613281 C 226.441406 20.613281 243.421875 34.011719 252.011719 62.769531 "/>
<path style=" stroke:none;fill-rule:nonzero;fill:rgb(1.599121%,0.799561%,1.199341%);fill-opacity:1;" d="M 262.363281 42.027344 C 262.363281 42.027344 272.078125 73.191406 274.269531 75.597656 C 274.269531 75.597656 279.101563 71.859375 276.96875 46.164063 C 276.96875 46.164063 268.535156 13.820313 267.382813 8.804688 C 267.382813 8.804688 262.414063 -6.359375 258.511719 5.410156 C 258.511719 5.410156 263.449219 30.34375 262.363281 42.027344 "/>
<path style=" stroke:none;fill-rule:nonzero;fill:rgb(1.599121%,0.799561%,1.199341%);fill-opacity:1;" d="M 291.523438 54.976563 C 291.523438 54.976563 294.507813 54.464844 296.726563 45.605469 C 298.960938 36.757813 297.65625 15.960938 298.953125 11.6875 C 298.953125 11.6875 309.304688 -9.449219 293.117188 5.140625 C 293.117188 5.140625 292.152344 8.207031 290.027344 8.164063 C 290.027344 8.164063 274.261719 0.589844 277.671875 8.515625 C 277.671875 8.515625 291.960938 13.640625 291.523438 54.976563 "/>
<path style=" stroke:none;fill-rule:nonzero;fill:rgb(1.599121%,0.799561%,1.199341%);fill-opacity:1;" d="M 317.738281 51.769531 C 317.738281 51.769531 326.519531 12.308594 328.601563 10.851563 C 328.601563 10.851563 332.425781 -3.746094 320.972656 3.648438 C 320.972656 3.648438 308.945313 40.28125 308.726563 45.269531 C 308.726563 45.269531 307.691406 58.410156 309.289063 65.078125 C 309.289063 65.078125 311.410156 77.730469 317.738281 51.769531 "/>
<path style=" stroke:none;fill-rule:nonzero;fill:rgb(1.599121%,0.799561%,1.199341%);fill-opacity:1;" d="M 329.105469 53.917969 C 329.105469 53.917969 325.570313 79.097656 336.058594 50.191406 C 336.058594 50.191406 346.492188 31.527344 352.0625 28.902344 C 352.0625 28.902344 368.949219 13.78125 351.808594 20 C 351.808594 20 347.335938 24.097656 345.878906 22.363281 C 345.878906 22.363281 343.890625 2.285156 336.132813 15.21875 C 336.132813 15.21875 338.503906 23.988281 336.589844 31.449219 C 336.589844 31.449219 331.035156 47.148438 329.105469 53.917969 "/>
<path style=" stroke:none;fill-rule:nonzero;fill:rgb(1.599121%,0.799561%,1.199341%);fill-opacity:1;" d="M 357.117188 58.074219 C 357.117188 58.074219 364.460938 42.683594 369.433594 30.878906 C 369.433594 30.878906 381.207031 10.261719 366.632813 19.582031 C 366.632813 19.582031 343.75 53.675781 340.265625 73.734375 C 340.265625 73.734375 339.21875 86.835938 357.117188 58.074219 "/>
<path style=" stroke:none;fill-rule:nonzero;fill:rgb(1.599121%,0.799561%,1.199341%);fill-opacity:1;" d="M 360.953125 71.382813 C 360.953125 71.382813 351.460938 82.863281 372.191406 66.433594 C 372.191406 66.433594 417.90625 9.03125 385.664063 30.421875 C 385.664063 30.421875 380.464844 31.632813 377.375 29.605469 C 374.277344 27.570313 376.542969 28.28125 374.296875 32.539063 C 374.296875 32.539063 380.601563 53.921875 360.953125 71.382813 "/>
<path style=" stroke:none;fill-rule:nonzero;fill:rgb(1.599121%,0.799561%,1.199341%);fill-opacity:1;" d="M 367.785156 85.324219 C 358.921875 95.195313 379.707031 82.160156 380.765625 82.132813 C 381.824219 82.101563 416.921875 61.679688 421.617188 53.070313 C 426.324219 44.457031 421.171875 37.183594 413.128906 40.066406 C 405.078125 42.945313 367.785156 85.324219 367.785156 85.324219 "/>
<g clip-path="url(#clip1)" clip-rule="nonzero">
<path style=" stroke:none;fill-rule:nonzero;fill:rgb(1.599121%,0.799561%,1.199341%);fill-opacity:1;" d="M 535.53125 192.144531 C 529.785156 194.949219 504.265625 210.507813 503.898438 216.34375 C 503.535156 222.179688 490.117188 253.292969 486.160156 263.464844 C 482.214844 273.648438 498.011719 270.457031 498.011719 270.457031 C 525.066406 271.722656 486.742188 284.109375 486.742188 284.109375 C 474.617188 286.046875 464.457031 301.699219 464.457031 301.699219 C 451.414063 308.957031 459.417969 310.851563 461.023438 311.335938 C 462.628906 311.824219 470.21875 317.957031 470.21875 317.957031 C 472.75 332.71875 454.46875 323.175781 454.46875 323.175781 C 442.632813 316.621094 430.242188 328.09375 430.242188 328.09375 C 402.484375 339.480469 420.082031 343.746094 420.082031 343.746094 C 430.414063 352.984375 413.941406 351.339844 413.941406 351.339844 C 390.4375 341.871094 371.609375 356.238281 371.609375 356.238281 C 353.734375 364.160156 370.457031 368.464844 370.457031 368.464844 C 377.230469 383.628906 361.097656 374.933594 361.097656 374.933594 C 350.792969 366.601563 336.171875 373.972656 336.171875 373.972656 C 286.703125 384.789063 347.136719 349.511719 347.136719 349.511719 C 370.699219 339.847656 425.949219 307.550781 425.949219 307.550781 C 450.011719 296.8125 463.664063 273.640625 474.761719 253.726563 C 485.851563 233.8125 503.421875 161.785156 503.421875 161.785156 C 518.277344 124.816406 518.246094 161.367188 514.96875 176.828125 C 511.699219 192.285156 509.550781 191.285156 523.722656 186.652344 C 537.898438 182.007813 541.289063 189.328125 535.53125 192.144531 M 297.578125 283.097656 C 285.171875 294.050781 285.113281 287.164063 285.113281 287.164063 C 285.113281 287.164063 283.785156 282.425781 263.945313 273.984375 C 244.105469 265.535156 265.824219 264.390625 265.824219 264.390625 C 265.824219 264.390625 268.964844 264.304688 274.730469 268.90625 C 280.5 273.515625 292.179688 279.542969 297.277344 272.511719 C 302.378906 265.480469 314.253906 263.023438 314.253906 263.023438 C 333.140625 265.144531 319.089844 275.640625 319.089844 275.640625 C 319.089844 275.640625 309.984375 272.152344 297.578125 283.097656 M 300.402344 345.535156 C 288.496094 355.414063 295.84375 371.621094 295.84375 371.621094 C 304.527344 379.324219 300.492188 386.328125 300.492188 386.328125 C 291.699219 393.996094 293.859375 414.066406 297 418.742188 C 300.144531 423.429688 301.867188 435.03125 301.867188 435.03125 C 292.0625 446.921875 294.734375 463.84375 298.496094 471.6875 C 302.257813 479.519531 295.9375 487.648438 295.9375 487.648438 C 288.015625 507.472656 298.789063 513.523438 296.789063 517.828125 C 294.785156 522.117188 278.792969 518.332031 278.792969 518.332031 L 279.929688 296.308594 L 288.402344 296.070313 C 301.59375 294.117188 298.132813 302.691406 298.132813 302.691406 C 291.824219 304.453125 294.617188 328.21875 294.617188 328.21875 C 300.707031 337.578125 300.402344 345.535156 300.402344 345.535156 M 250.367188 214.503906 C 250.367188 214.503906 252.316406 200.144531 260.574219 211.03125 C 268.828125 221.921875 268.316406 222.464844 263.804688 222.0625 C 259.28125 221.667969 258.003906 249.777344 250.367188 214.503906 M 246.96875 247.375 C 246.96875 247.375 239.46875 270.433594 238.070313 239.746094 C 238.070313 239.746094 238.378906 217.484375 246.746094 239.503906 C 246.746094 239.503906 256.84375 252.320313 246.96875 247.375 M 233.398438 226.757813 C 230.800781 226.179688 227.925781 246.910156 221.542969 222.195313 C 221.542969 222.195313 225.082031 202.269531 233.09375 216.042969 C 241.09375 229.824219 235.972656 227.328125 233.398438 226.757813 M 226.117188 259.074219 C 220.921875 255.425781 229.4375 252.707031 229.4375 252.707031 C 229.4375 252.707031 229.359375 250.054688 232.992188 252.605469 C 236.628906 255.15625 231.308594 262.722656 226.117188 259.074219 M 228.132813 176.53125 C 237.574219 184.660156 230.832031 185.789063 228.425781 186.980469 C 226.019531 188.171875 222.296875 199.398438 219.828125 180.929688 C 219.828125 180.929688 218.679688 168.390625 228.132813 176.53125 M 217.710938 211.476563 C 214.15625 218.167969 210.683594 222.019531 209.132813 206.941406 C 209.132813 206.941406 212.925781 191.277344 217.398438 200.375 C 221.859375 209.472656 221.257813 204.773438 217.710938 211.476563 M 216.460938 243.441406 C 216.460938 243.441406 206.371094 242.765625 206.730469 236.695313 C 207.089844 230.621094 212.515625 235.296875 212.515625 235.296875 C 217.636719 236.285156 216.460938 243.441406 216.460938 243.441406 M 199.605469 188.273438 C 204.847656 183.78125 212.378906 192.789063 205.609375 197.789063 C 198.84375 202.785156 199.605469 188.273438 199.605469 188.273438 M 194.035156 217.898438 C 192.246094 210.226563 199.71875 213.476563 199.71875 213.476563 C 202.820313 229.480469 195.824219 225.574219 194.035156 217.898438 M 187.132813 200.351563 C 185.34375 192.675781 192.8125 195.925781 192.8125 195.925781 C 195.917969 211.917969 188.921875 208.023438 187.132813 200.351563 M 207.980469 166.152344 C 207.980469 166.152344 211.921875 161.519531 213.691406 165.988281 C 215.460938 170.449219 213.101563 175.464844 209.808594 174.148438 C 206.515625 172.824219 205.542969 168.003906 207.980469 166.152344 M 221.164063 146.59375 C 226.414063 142.101563 233.945313 151.101563 227.167969 156.097656 C 220.410156 161.097656 221.164063 146.59375 221.164063 146.59375 M 233.804688 128.769531 C 233.804688 128.769531 237.753906 124.148438 239.523438 128.609375 C 241.28125 133.078125 238.933594 138.09375 235.640625 136.769531 C 232.339844 135.453125 231.367188 130.632813 233.804688 128.769531 M 244.40625 156.59375 C 255.558594 164.550781 246.953125 164.773438 244.644531 165.117188 C 242.339844 165.457031 238.945313 176.878906 238.03125 163.292969 C 238.03125 163.292969 233.25 148.632813 244.40625 156.59375 M 252.003906 141.335938 C 252.003906 141.335938 257.023438 141.726563 262.433594 144.226563 C 267.828125 146.714844 258.914063 152.273438 250.421875 147.738281 C 241.925781 143.214844 252.003906 141.335938 252.003906 141.335938 M 265.179688 119.78125 C 271.871094 121.175781 257.09375 126.101563 257.09375 126.101563 C 248.945313 119.71875 258.488281 118.378906 265.179688 119.78125 M 279.515625 127.316406 C 276.304688 141.179688 274.351563 135.941406 270.828125 130.878906 C 267.320313 125.804688 279.515625 127.316406 279.515625 127.316406 M 277.171875 161.011719 C 272.371094 159.84375 271.894531 178.273438 266.203125 155.976563 C 266.203125 155.976563 262.035156 146.503906 272.769531 153.28125 C 283.5 160.050781 281.980469 162.191406 277.171875 161.011719 M 294.347656 168.753906 C 307.457031 182.6875 300.984375 178.636719 294.632813 178.816406 C 288.28125 178.996094 286.410156 196.527344 281.96875 175.460938 C 281.96875 175.460938 281.242188 154.816406 294.347656 168.753906 M 297.128906 140.0625 C 308.664063 150.339844 286.898438 150.953125 286.242188 140.371094 C 286.242188 140.371094 285.59375 129.796875 297.128906 140.0625 M 299.707031 117.511719 C 302.359375 120.394531 296.21875 122.609375 292.773438 121.714844 C 289.324219 120.835938 287.757813 113.839844 287.757813 113.839844 C 290.648438 113.226563 297.054688 114.636719 299.707031 117.511719 M 306.007813 152.34375 C 308.035156 147.886719 309.753906 151.367188 314.621094 154.609375 C 319.488281 157.847656 315.890625 162.316406 306.394531 166.066406 C 296.910156 169.800781 306.007813 152.34375 306.007813 152.34375 M 305.269531 126.261719 C 309.882813 122.632813 318.636719 128.332031 311.152344 135.195313 C 303.664063 142.070313 305.269531 126.261719 305.269531 126.261719 M 328.09375 171.054688 C 335.71875 184.023438 325.8125 175.445313 323.117188 183.652344 C 320.429688 191.863281 311.785156 181.332031 315.191406 174.828125 C 315.191406 174.828125 320.484375 158.074219 328.09375 171.054688 M 326.683594 121.015625 C 322.476563 129.9375 319.089844 117.046875 319.089844 117.046875 C 319.089844 117.046875 330.890625 112.089844 326.683594 121.015625 M 327.476563 149.121094 C 317.035156 161.988281 320.351563 134.9375 320.351563 134.9375 C 323.441406 134.09375 337.929688 136.265625 327.476563 149.121094 M 339.625 188.667969 C 346.121094 201.195313 342.351563 202.894531 339.953125 200.3125 C 337.554688 197.734375 328.472656 217.59375 331.53125 192.609375 C 331.53125 192.609375 333.128906 176.136719 339.625 188.667969 M 333.320313 151.570313 C 335.195313 146.019531 344.675781 150.023438 338.882813 162.453125 C 333.09375 174.882813 333.320313 151.570313 333.320313 151.570313 M 337.804688 124.3125 C 341.535156 123.71875 345.921875 131.265625 336.847656 132.226563 C 327.78125 133.195313 337.804688 124.3125 337.804688 124.3125 M 355.460938 170.28125 C 355.460938 170.28125 358.257813 180.34375 352.414063 180.171875 C 346.582031 179.992188 346.664063 192.007813 345.542969 175.703125 C 345.542969 175.703125 339.871094 157.019531 355.460938 170.28125 M 351.710938 148.695313 C 346.355469 159.363281 344.496094 138.722656 344.496094 138.722656 C 347.804688 138.285156 357.0625 138.023438 351.710938 148.695313 M 350.902344 120.074219 C 357.71875 123.679688 353.632813 129.292969 349.101563 128.664063 C 344.574219 128.027344 350.902344 120.074219 350.902344 120.074219 M 363.535156 162.789063 C 358.988281 171.96875 354.984375 153.46875 354.984375 153.46875 C 358.441406 151.808594 368.09375 153.597656 363.535156 162.789063 M 362.359375 142.558594 C 367.625 146.039063 364.375 147 362.472656 146.503906 C 360.558594 145.996094 362.359375 142.558594 362.359375 142.558594 M 375.183594 174.867188 C 379.929688 185.058594 375.324219 185.710938 370.914063 185.222656 C 366.503906 184.734375 366.039063 180.339844 366.058594 175.125 C 366.058594 175.125 370.445313 164.675781 375.183594 174.867188 M 376.648438 162.417969 L 378.105469 167.449219 C 375.015625 167.179688 376.648438 162.417969 376.648438 162.417969 M 390.117188 201.832031 C 385.425781 204.371094 383.625 208.28125 383.625 208.28125 L 376.007813 204.140625 C 389.203125 194.023438 394.808594 199.292969 390.117188 201.832031 M 383.320313 181.953125 C 383.320313 181.953125 389.640625 178.773438 390.007813 179.109375 C 390.359375 179.4375 387.402344 186.972656 383.464844 186.929688 C 379.511719 186.886719 383.320313 181.953125 383.320313 181.953125 M 375.960938 225.964844 C 360.746094 231.34375 375.746094 218.339844 375.746094 218.339844 C 381.054688 218.691406 391.175781 220.585938 375.960938 225.964844 M 358.589844 203.355469 C 358.589844 203.355469 366.382813 181.195313 368.796875 202.015625 C 371.210938 222.835938 368.769531 212.964844 368.769531 212.964844 C 368.769531 212.964844 358.757813 220.164063 358.589844 203.355469 M 365.828125 244.015625 C 363.246094 244.691406 347.613281 254.132813 353.488281 237.019531 C 353.488281 237.019531 364.296875 228.765625 365.546875 234.023438 C 366.808594 239.285156 368.414063 243.34375 365.828125 244.015625 M 340.425781 216.960938 C 340.425781 216.960938 343.113281 200.222656 351.222656 209.53125 C 359.34375 218.84375 357.515625 229.3125 353.722656 226.59375 C 349.945313 223.875 348.773438 242.398438 340.425781 216.960938 M 347.6875 256.691406 C 346.273438 262.652344 330.378906 266.28125 333.503906 262.480469 C 336.621094 258.6875 336.269531 255.964844 336.269531 255.964844 C 336.269531 255.964844 349.113281 250.742188 347.6875 256.691406 M 316.390625 217.636719 C 316.390625 217.636719 315.285156 197.304688 328.484375 214.410156 C 328.484375 214.410156 332.625 229.128906 324.285156 225.128906 C 324.285156 225.128906 314.523438 245.484375 316.390625 217.636719 M 312.535156 202.144531 C 304.828125 202.363281 302.09375 226.285156 298.609375 192.476563 C 298.609375 192.476563 304 176.582031 312.253906 192.09375 C 312.253906 192.09375 320.234375 201.929688 312.535156 202.144531 M 299.417969 235.894531 C 299.417969 235.894531 302.003906 224.167969 308.820313 235.628906 C 315.632813 247.097656 316.574219 252.367188 309.253906 250.980469 C 301.929688 249.597656 299.96875 255.480469 299.984375 256.007813 C 300 256.539063 286.773438 275.984375 299.417969 235.894531 M 282.042969 216.78125 C 282.042969 216.78125 284.988281 193.925781 295.546875 211.105469 C 306.089844 228.285156 291.71875 225.519531 291.71875 225.519531 C 291.71875 225.519531 285.601563 245.292969 282.042969 216.78125 M 280.570313 243.84375 C 280.570313 243.84375 290.476563 256.808594 277.125 252.949219 C 277.125 252.949219 272.234375 248.9375 270.265625 253.980469 C 268.285156 259.027344 262.828125 261.558594 265.328125 246.855469 C 265.328125 246.855469 266.867188 208.730469 280.570313 243.84375 M 275.800781 187.296875 C 284.636719 200.289063 282.46875 198.320313 276.125 198.714844 C 276.125 198.714844 267.90625 221.425781 266.203125 191.800781 C 266.203125 191.800781 266.953125 174.289063 275.800781 187.296875 M 250.359375 175.902344 C 250.359375 175.902344 250.085938 158.675781 259.929688 169.367188 C 269.769531 180.046875 267.632813 179.425781 262.65625 181.492188 C 257.675781 183.5625 249.664063 196.125 250.359375 175.902344 M 245.398438 191.859375 C 256.117188 203.207031 251.667969 200.253906 245.617188 199.578125 C 239.570313 198.910156 234.46875 226.074219 236.511719 194.761719 C 236.511719 194.761719 234.683594 180.507813 245.398438 191.859375 M 326.574219 240.332031 C 326.574219 240.332031 330.84375 222.820313 339.160156 235.832031 C 339.160156 235.832031 345.554688 256.710938 336.058594 248.519531 C 336.058594 248.519531 319.761719 262.144531 326.574219 240.332031 M 252.28125 373.382813 C 252.28125 373.382813 228.925781 366.214844 221.21875 374.320313 C 213.496094 382.425781 204.742188 372.613281 214.097656 366.511719 C 214.097656 366.511719 224.574219 361.980469 213.84375 357.519531 C 203.128906 353.046875 194.339844 342.171875 160.640625 349.480469 C 160.640625 349.480469 151.636719 348.675781 165.683594 339.800781 C 165.683594 339.800781 172.953125 335.359375 161.722656 331.441406 C 161.722656 331.441406 139.15625 320.425781 137.515625 318.351563 C 137.515625 318.351563 114.855469 322.695313 110.667969 324.40625 C 110.667969 324.40625 101.136719 324.671875 112.511719 314.8125 C 112.511719 314.8125 122.394531 308.175781 125.5625 308.085938 C 125.5625 308.085938 122.257813 303.414063 117.378906 299.320313 C 112.484375 295.210938 115.398438 285.597656 74.808594 274.03125 C 74.808594 274.03125 69.855469 267.816406 83.0625 266.378906 C 83.0625 266.378906 87.214844 263.078125 91.578125 267.722656 C 91.578125 267.722656 97.960938 268.601563 93.472656 259.730469 C 93.472656 259.730469 74.296875 218.414063 71.789063 204.710938 C 71.789063 204.710938 53.359375 189.863281 46.953125 188.453125 C 46.953125 188.453125 40.363281 180.171875 54.792969 184.527344 C 54.792969 184.527344 79.304688 199.550781 67.300781 177.289063 C 67.300781 177.289063 59.535156 146.253906 63.671875 142.421875 C 63.671875 142.421875 61.925781 118.101563 73.195313 142.152344 C 84.476563 166.199219 95.28125 248.546875 117.015625 268.0625 C 117.015625 268.0625 138.113281 309.855469 200.78125 330.339844 L 253.839844 360.625 C 253.839844 360.625 275.445313 373.789063 252.28125 373.382813 M 556.0625 89.933594 C 561.152344 81.871094 581.652344 53.355469 583.136719 49.621094 C 583.136719 49.621094 584.84375 43.765625 582.773438 36.703125 C 582.773438 36.703125 571.148438 30.4375 571.320313 45.996094 C 571.320313 45.996094 560.148438 65.035156 547.652344 74.621094 C 547.652344 74.621094 519.167969 93.617188 514.402344 104.039063 C 514.402344 104.039063 500.195313 128.960938 491.382813 146.351563 C 491.382813 146.351563 470.5625 163.5625 462.394531 128.710938 C 462.394531 128.710938 461.820313 117.65625 462.175781 111.574219 C 462.175781 111.574219 455.121094 97.273438 450.542969 114.015625 C 450.542969 114.015625 445.3125 127.082031 450.070313 144.621094 C 450.070313 144.621094 450.664063 156.207031 460.890625 169.363281 C 460.890625 169.363281 470.910156 185.164063 470.164063 205.757813 C 470.164063 205.757813 463.058594 227.320313 449.277344 210.835938 C 449.277344 210.835938 441.429688 206.035156 441.011719 191.28125 C 441.011719 191.28125 440.863281 186.011719 437.421875 186.640625 C 437.421875 186.640625 431.863281 187.847656 433.242188 199.15625 C 433.242188 199.15625 431.082031 207.125 442.253906 235.296875 C 442.253906 235.296875 448.152344 271.425781 435.269531 280.238281 C 435.269531 280.238281 428.390625 287.808594 423.464844 289.367188 C 418.527344 290.90625 411.386719 284.78125 411.296875 283.730469 C 411.203125 282.671875 410.632813 275.3125 415.121094 270.605469 C 415.121094 270.605469 414.304688 260.605469 409.472656 271.46875 C 409.472656 271.46875 391.367188 309.4375 387.015625 312.019531 C 382.648438 314.601563 376.816406 321.972656 364.449219 317.574219 C 364.449219 317.574219 351.679688 311.261719 360.878906 297.808594 C 360.878906 297.808594 363.441406 287.726563 353.925781 296.597656 C 353.925781 296.597656 342.476563 318.195313 341.546875 329.660156 C 341.546875 329.660156 338.078125 338.890625 335.152344 342.136719 C 335.152344 342.136719 331.746094 346.988281 323.199219 345.992188 C 323.199219 345.992188 302.566406 331.800781 329.636719 310.117188 C 329.636719 310.117188 335.519531 304.503906 327.054688 306.496094 C 327.054688 306.496094 317.09375 305.730469 314.367188 297.011719 C 311.640625 288.300781 321.117188 284.871094 323.941406 284.085938 C 326.757813 283.304688 335.664063 284.460938 335.664063 284.460938 C 335.664063 284.460938 340.601563 283.605469 337.359375 281.941406 C 334.117188 280.277344 329.304688 273.027344 341.96875 268.804688 C 341.96875 268.804688 357.113281 264.867188 364.417969 272.035156 C 364.417969 272.035156 377.171875 271.675781 368.171875 267.011719 C 368.171875 267.011719 348.152344 261.953125 365.636719 252.316406 C 365.636719 252.316406 377.199219 247.421875 385.515625 252.808594 C 385.515625 252.808594 402.839844 250.207031 390.332031 247.394531 C 390.332031 247.394531 376.070313 244.992188 381.410156 233.230469 C 381.410156 233.230469 391.488281 225.210938 402.550781 227.714844 C 402.550781 227.714844 415.683594 227.34375 403.800781 221.351563 C 403.800781 221.351563 384.484375 216.265625 400.171875 206.324219 C 400.171875 206.324219 408.179688 200.832031 416.386719 202.355469 C 416.386719 202.355469 428.683594 197.792969 413.699219 195.054688 C 413.699219 195.054688 407.011719 196.652344 401.667969 196.445313 C 401.667969 196.445313 379.695313 184.761719 412.09375 176.109375 C 412.09375 176.109375 421.421875 166.703125 404.511719 171.394531 C 404.511719 171.394531 400.625 175.015625 394.523438 175.71875 C 394.523438 175.71875 379.101563 176.421875 390.351563 160.019531 C 390.351563 160.019531 399.960938 151.566406 402.605469 151.226563 C 402.605469 151.226563 406.8125 139.769531 396.046875 145.09375 C 396.046875 145.09375 389.585938 151.59375 385.921875 154.074219 C 385.921875 154.074219 379.480469 161.644531 373.878906 151.78125 C 373.878906 151.78125 364.058594 143.355469 381.714844 137.050781 C 381.714844 137.050781 388.398438 128.6875 377.3125 131.898438 C 377.3125 131.898438 363.511719 142.839844 360.261719 131.332031 C 360.261719 131.332031 362.949219 113.582031 384.265625 104.816406 C 384.265625 104.816406 397.796875 103.371094 404.070313 98.980469 C 404.070313 98.980469 410.933594 87.707031 396.164063 92.601563 C 396.164063 92.601563 397.542969 94.410156 390.644531 95.136719 C 390.644531 95.136719 375.496094 96.09375 370.273438 99.671875 C 370.273438 99.671875 351.363281 108.644531 348.550781 112.671875 C 348.550781 112.671875 342.066406 118.394531 345.511719 108.542969 C 345.511719 108.542969 348.628906 96.324219 349.5625 91.808594 C 349.5625 91.808594 350.421875 84.671875 344.773438 91.679688 C 344.773438 91.679688 329.273438 108.738281 328.230469 109.296875 C 327.171875 109.847656 322.488281 113.40625 324.507813 99.902344 C 324.507813 99.902344 325.410156 85.03125 325.738281 83.960938 C 326.066406 82.898438 327.101563 75.832031 320.40625 83.765625 C 313.710938 91.675781 303.234375 103.585938 303.234375 103.585938 C 303.234375 103.585938 290.933594 81.085938 290.851563 73.863281 L 281.765625 106.609375 C 281.765625 106.609375 271.523438 94.378906 265.007813 86.246094 C 258.472656 78.105469 259.304688 85.203125 259.613281 86.277344 C 259.90625 87.351563 260.367188 102.253906 260.367188 102.253906 C 261.996094 115.832031 257.363281 112.125 256.304688 111.53125 C 255.269531 110.9375 240.140625 93.398438 240.140625 93.398438 C 234.640625 86.195313 235.292969 93.371094 235.292969 93.371094 C 236.09375 97.910156 238.859375 110.230469 238.859375 110.230469 C 242.050781 120.1875 235.667969 114.269531 235.667969 114.269531 C 232.941406 110.140625 214.109375 100.570313 214.109375 100.570313 C 208.933594 96.828125 193.65625 95.394531 193.65625 95.394531 C 186.710938 94.449219 188.152344 92.683594 188.152344 92.683594 C 173.378906 87.324219 179.96875 98.8125 179.96875 98.8125 C 186.179688 103.402344 199.8125 105.269531 199.8125 105.269531 C 221.078125 114.722656 223.257813 132.558594 223.257813 132.558594 C 219.621094 143.964844 206.003906 132.585938 206.003906 132.585938 C 194.902344 129.019531 201.398438 137.601563 201.398438 137.601563 C 219.054688 144.460938 208.851563 152.566406 208.851563 152.566406 C 202.902344 162.253906 196.621094 154.480469 196.621094 154.480469 C 192.996094 151.890625 186.664063 145.171875 186.664063 145.171875 C 175.945313 139.515625 179.832031 151.109375 179.832031 151.109375 C 182.507813 151.535156 191.960938 160.285156 191.960938 160.285156 C 202.828125 177.039063 187.265625 175.859375 187.265625 175.859375 C 181.109375 174.960938 177.300781 171.210938 177.300781 171.210938 C 160.367188 165.984375 169.488281 175.6875 169.488281 175.6875 C 201.972656 185.359375 179.394531 196.355469 179.394531 196.355469 C 174 196.386719 167.285156 194.574219 167.285156 194.574219 C 152.054688 196.84375 164.335938 201.800781 164.335938 201.800781 C 172.6875 200.535156 180.605469 206.28125 180.605469 206.28125 C 196.15625 216.71875 176.484375 221.183594 176.484375 221.183594 C 164.289063 226.800781 177.542969 227.589844 177.542969 227.589844 C 188.808594 225.445313 198.738281 233.777344 198.738281 233.777344 C 203.777344 245.695313 189.292969 247.664063 189.292969 247.664063 C 176.566406 250.066406 193.992188 253.21875 193.992188 253.21875 C 202.5625 248.097656 214.109375 253.363281 214.109375 253.363281 C 231.476563 263.554688 211.082031 267.980469 211.082031 267.980469 C 201.847656 272.363281 214.726563 273.121094 214.726563 273.121094 C 222.324219 266.179688 237.523438 270.609375 237.523438 270.609375 C 250.183594 275.230469 245.097656 282.335938 241.765625 283.875 C 238.441406 285.449219 243.410156 286.464844 243.410156 286.464844 C 243.410156 286.464844 252.445313 285.585938 255.265625 286.457031 C 258.097656 287.324219 267.570313 291.054688 264.546875 299.683594 C 261.515625 308.308594 251.425781 308.777344 251.425781 308.777344 C 242.933594 306.507813 248.699219 312.3125 248.699219 312.3125 C 275.398438 334.851563 254.117188 348.371094 254.117188 348.371094 C 245.441406 349.105469 242.140625 344.148438 242.140625 344.148438 C 239.289063 340.800781 236.058594 331.457031 236.058594 331.457031 C 235.488281 319.980469 224.582031 298.015625 224.582031 298.015625 C 215.230469 288.839844 217.507813 299 217.507813 299 C 226.394531 312.738281 213.277344 318.648438 213.277344 318.648438 C 200.648438 322.660156 194.984375 315.105469 190.652344 312.382813 C 186.332031 309.65625 169.214844 271.140625 169.214844 271.140625 C 164.648438 260.117188 163.53125 270.078125 163.53125 270.078125 C 167.910156 274.921875 167.109375 282.269531 166.976563 283.316406 C 166.863281 284.371094 159.449219 290.273438 154.511719 288.566406 C 149.585938 286.867188 142.855469 279.078125 142.855469 279.078125 C 130.105469 269.867188 137.191406 233.902344 137.191406 233.902344 C 149.34375 206.089844 147.40625 198.0625 147.40625 198.0625 C 149.148438 186.800781 143.570313 185.417969 143.570313 185.417969 C 140.109375 184.679688 139.796875 189.953125 139.796875 189.953125 C 138.917969 204.683594 130.832031 209.226563 130.832031 209.226563 C 116.40625 225.265625 109.886719 203.492188 109.886719 203.492188 C 109.753906 182.871094 120.386719 167.398438 120.386719 167.398438 C 131.117188 154.558594 132.085938 142.988281 132.085938 142.988281 C 137.421875 125.601563 132.535156 112.375 132.535156 112.375 C 128.425781 95.480469 120.855469 109.5625 120.855469 109.5625 C 121.027344 115.660156 120.09375 126.695313 120.09375 126.695313 C 110.773438 161.273438 90.261719 143.414063 90.261719 143.414063 C 81.886719 125.742188 68.292969 100.371094 68.292969 100.371094 C 63.808594 89.796875 35.605469 69.890625 35.605469 69.890625 C 23.261719 59.910156 12.550781 40.519531 12.550781 40.519531 C 13.214844 24.972656 1.269531 30.871094 1.269531 30.871094 C -1.03125 37.863281 0.5 43.769531 0.5 43.769531 C 1.894531 47.546875 21.726563 76.730469 26.621094 84.949219 C 31.527344 93.167969 52.179688 131.113281 52.179688 131.113281 C 65.191406 166.234375 38.328125 173.882813 38.328125 173.882813 C 10.199219 166.398438 11.59375 147.464844 11.59375 147.464844 C 2.710938 138.226563 1.007813 153.179688 1.007813 153.179688 C -1.027344 173.921875 54.394531 207.335938 54.394531 207.335938 C 90.65625 241.175781 58.1875 261.441406 58.1875 261.441406 C 31.957031 272.039063 17.527344 278.84375 13.082031 290.46875 C 8.613281 302.09375 21.585938 296.789063 21.585938 296.789063 C 22.664063 292.359375 33.15625 283.746094 33.15625 283.746094 C 35.5 280.445313 92.976563 279.363281 97.488281 307.910156 C 101.988281 336.433594 70.550781 339.332031 70.550781 339.332031 C 55.5 334.207031 56.761719 344.589844 56.761719 344.589844 C 67.402344 356.042969 90.765625 348.457031 90.765625 348.457031 C 122.390625 319.6875 140.703125 342.710938 140.703125 342.710938 C 151.382813 367.109375 109.332031 371.746094 109.332031 371.746094 C 97.0625 369.429688 98.777344 376.941406 98.777344 376.941406 C 117.480469 388.617188 132.859375 383.980469 165.203125 365.8125 C 197.546875 347.664063 195.863281 380.578125 195.863281 380.578125 C 183.894531 400.488281 174.613281 398.078125 174.613281 398.078125 C 165.511719 397.007813 160.136719 396.679688 160.136719 396.679688 C 156.941406 404.972656 168.011719 409.3125 168.011719 409.3125 C 180.210938 412.691406 205.804688 399.410156 205.804688 399.410156 C 218.835938 388.550781 229.464844 391.304688 229.464844 391.304688 C 243.265625 385.78125 245.828125 397.023438 245.828125 397.023438 C 249.21875 403.570313 235.597656 405.925781 233.757813 409.691406 C 231.914063 413.445313 236.1875 414.417969 236.1875 414.417969 C 254.167969 402.269531 263.183594 422.371094 263.183594 422.371094 C 266.496094 439.46875 236.308594 442.957031 236.308594 442.957031 C 232.007813 446.414063 235.902344 449.804688 235.902344 449.804688 C 276.789063 445.882813 254.410156 479.441406 254.410156 479.441406 C 249.363281 482.832031 235.265625 484.117188 235.265625 484.117188 C 230.539063 491.230469 237.511719 491.652344 237.511719 491.652344 C 242.070313 487.6875 249.496094 489.714844 249.496094 489.714844 C 254.296875 490.527344 264.957031 501.726563 257.335938 511.839844 C 249.734375 521.960938 239.878906 524.535156 239.878906 524.535156 C 236.195313 528.273438 235.0625 531.070313 235.089844 533.148438 L 336.363281 530.289063 C 336.144531 528.316406 334.949219 525.75 331.90625 522.4375 C 331.90625 522.4375 322.242188 519.535156 315.023438 509.199219 C 307.8125 498.851563 318.691406 488.003906 323.46875 487.332031 C 323.46875 487.332031 330.867188 485.546875 335.246094 489.640625 C 335.246094 489.640625 342.160156 489.445313 337.6875 482.183594 C 337.6875 482.183594 323.804688 480.472656 318.910156 476.917969 C 318.910156 476.917969 297.828125 442.699219 338.109375 447.886719 C 338.109375 447.886719 342.066406 444.609375 337.914063 441.042969 C 337.914063 441.042969 308.199219 436.609375 311.972656 419.625 C 311.972656 419.625 321.507813 399.835938 338.90625 412.527344 C 338.90625 412.527344 343.15625 411.703125 341.445313 407.882813 C 339.746094 404.066406 326.363281 401.28125 329.90625 394.855469 C 329.90625 394.855469 332.785156 383.691406 346.257813 389.636719 C 346.257813 389.636719 356.84375 387.234375 369.40625 398.484375 C 369.40625 398.484375 394.28125 412.546875 406.441406 409.570313 C 406.441406 409.570313 417.511719 405.5625 414.613281 397.207031 C 414.613281 397.207031 409.300781 397.355469 400.273438 398.128906 C 400.273438 398.128906 391.007813 400.25 379.789063 379.988281 C 379.789063 379.988281 379.128906 347.046875 410.542969 366.199219 C 441.960938 385.351563 457.011719 390.46875 475.863281 379.386719 C 475.863281 379.386719 477.785156 371.953125 465.597656 373.878906 C 465.597656 373.878906 424.171875 367.925781 435.464844 343.875 C 435.464844 343.875 454.257813 321.457031 484.65625 351.1875 C 484.65625 351.1875 507.515625 359.503906 518.375 348.390625 C 518.375 348.390625 519.949219 338.058594 504.90625 342.699219 C 504.90625 342.699219 473.921875 338.828125 479.242188 310.464844 C 484.5625 282.101563 541.347656 284.976563 543.566406 288.332031 C 543.566406 288.332031 553.675781 297.28125 554.585938 301.746094 C 554.585938 301.746094 567.257813 307.449219 563.203125 295.695313 C 559.144531 283.945313 545.101563 276.699219 519.488281 265.28125 C 519.488281 265.28125 488.011719 244.027344 524.890625 211.332031 C 524.890625 211.332031 580.691406 179.695313 579.304688 158.898438 C 579.304688 158.898438 578.078125 143.902344 569.023438 152.863281 C 569.023438 152.863281 569.824219 171.828125 541.800781 178.414063 C 541.800781 178.414063 515.46875 169.925781 529.394531 135.257813 C 529.394531 135.257813 550.964844 97.996094 556.0625 89.933594 "/>
</g>
</g>
</svg>
